<?xml version="1.0" encoding="UTF-8"?><svg id="a" xmlns="http://www.w3.org/2000/svg" viewBox="0 0 168.01 155.61"><defs><style>.e{fill:#fff;}.f{isolation:isolate;}.g{fill:#1f6ad3;}</style></defs><g id="b"><g id="c"><path class="g" d="M153.67.06c-6.05,0-5.44,18.15-10.68,41.31-2.92,12.9-7.47,32.5-9.89,41.58-.6,1.81-4.25,18.79-9.68,27.83-1.81,3.02-3,3.02-10.89,3.02-2.42,0-4.84,0-6.15,1.67-.92,1.17-1.7,3.02-2.32,4.38-.7,1.54-2.13,2.16-3.63,2.42-.97.17-6.74-.18-10.89-1.21-9.68-2.42-9.97.34-13.91,1.81-4.84,1.81-6.05,7.86-6.05,11.49,0,1.21,9.44,3.1,38.72,10.28,15.89,3.9,28.41,9.07,36.3,9.07,3.63,0,11.02-7.33,14.52-9.07,19.13-9.57,1.75-11.95-.44-12.64-.46-.15-1.22-.39-1.69-.5-8.62-2.11-9.2-1.4-8.15-4.4,1.23-3.52.88-6.95-1.81-7.86-1.78-.61-2.4-.39-7.86-1.81-1.71-.45-2.42-.6-3.02-1.21-1.28-1.28.6-9.07,1.81-15.12.47-2.37,1.21-9.07,2.42-12.1,1-2.51,2.43-3.25,3.63-7.86,2.12-8.14,4.02-21.27,7.26-32.67,5.99-21.05,9.07-41.74,8.47-46.58-.31-2.47-4.71-1.81-6.05-1.81l-.02-.02Z"/><path class="g" d="M143.99,87.78c-.97,1.44-2.09,3.74-2.42,5.44-.5,2.57-2.42,9.68-2.42,13.91,0,6.29,2.42,5.44,4.23,2.42.98-1.63,3.65-6.22,4.23-12.7,1.21-13.31-1.84-11.72-3.63-9.07h.01Z"/><path class="g" d="M132.49,34.54s4.26-19.96-28.43-19.96c-15.73,0-32.67,14.52-37.51,22.38l-6.05,13.91v9.46s-3.63,4.45-3.63,9.29,4.84,6.65,4.84,6.65l.6,10.89-32.15,8.77S0,107.14,0,119.85s22.38,13.91,28.43,13.91,26.01-2.42,33.27-7.86c6.44-4.83,24.8-17.54,27.83-22.38.45-.73.99-1.95,1.21-3.02.6-3.02-2.42-9.07-7.86-9.07-6.37,0-12.63,5.37-15.12,7.86-.6.6-2.87,2-4.23,3.02l-9.07,4.84s-20.57,7.86-30.25,7.86c-3.02,0,21.78-9.68,21.78-9.68,0,0,12.1-6.05,18.15-6.05,3.63-1.21,10.3-10.44,19.36-9.68,7.26.6,10.28,9.07,9.07,12.1-2.01,5.02-4.84,6.05-4.84,6.05,5.44,0,7.26-4.23,7.26-4.23,0,0-.96-.48-1.21-1.21l1.81-3.02c3.02,1.81,6.65,4.84,6.65,4.84,0,1.21-1.81,3.02-1.81,3.02-.51-.02-1.81-1.21-1.81-1.21,0,0-1.81,1.81-4.84,3.02,0,0-3.63,1.21-6.65,1.21s-3.99,1.68-4.23,2.42c-.6,1.81.21,1.8.6,1.81,3.33.11,16.94,1.21,19.96,0,1.78-.71,3.02-3.63,4.84-3.63h6.74c1.33,0,2.66-.25,3.87-.8,1.16-.53,2.09-1.01,2.7-2.22,3.9-7.8,11.49-33.88,15.12-53.24,2.68-14.3-4.23-19.96-4.23-19.96h0ZM73.2,90.81c-2.42,0-4.84-3.09-4.84-6.65,0-1.21-.07-4.84,2.42-4.84s5.44,3.59,5.44,7.86c0,1.81-1.4,3.63-3.02,3.63ZM105.87,93.83c-3.02,0-6.65-3.5-6.65-7.26,0-1.81.6-4.84,3.63-4.84s6.05,3.5,6.05,7.26c0,1.81-.99,4.84-3.02,4.84h-.01Z"/></g></g><g id="d"><g class="f"><g class="f"><path class="e" d="M76.85,126.53c1.3-2.16,4.32-2.56,6.71-1.9,2.39.66,4.14,2.39,2.85,4.54l-1.93,3.21c-1.29,2.14-4.32,2.56-6.71,1.9-2.39-.66-4.14-2.39-2.85-4.54l1.93-3.21ZM77.83,130.53c-.41.69.33,1.28,1.26,1.54.93.26,2.06.17,2.47-.51l1.93-3.2c.44-.73-.32-1.32-1.27-1.58-.91-.25-2.05-.13-2.46.56l-1.93,3.2Z"/><path class="e" d="M89.81,126.5l2.93.81-4.24,7.03,4.69,1.29-1.41,2.34-7.62-2.1,5.65-9.37Z"/><path class="e" d="M102.9,130.11c2.31.64,3.9,2.19,2.59,4.37l-1.9,3.15c-1.3,2.16-4.03,2.5-6.34,1.85l-4.31-1.19,5.65-9.38,4.31,1.19ZM98.7,137.29c.99.27,1.7-.01,2.06-.62l1.76-2.93c.37-.61.13-1.12-.85-1.39l-1.48-.41-2.98,4.94,1.48.41Z"/><path class="e" d="M112.91,141.5c-1.88,1.26-3.97,1.36-5.42.96-2.26-.62-3.9-2.33-2.61-4.46l1.95-3.23c1.28-2.12,4.21-2.58,6.52-1.94,1.42.39,2.83,1.35,2.75,3.28l-2.85.13c-.08-1.38-2.81-1.83-3.51-.66l-1.95,3.23c-.68,1.13,1.74,2.16,3.15,1.04l1.97,1.65Z"/><path class="e" d="M116.29,137.4c1.3-2.16,4.32-2.56,6.71-1.9,2.39.66,4.14,2.39,2.85,4.54l-1.93,3.21c-1.29,2.14-4.32,2.56-6.71,1.9-2.39-.66-4.14-2.39-2.85-4.54l1.93-3.2ZM117.28,141.41c-.41.69.33,1.28,1.26,1.54.93.26,2.06.17,2.47-.51l1.93-3.2c.44-.73-.32-1.32-1.27-1.58-.91-.25-2.05-.13-2.46.56l-1.93,3.2Z"/><path class="e" d="M128.88,144.73l-.52-.14-1.79,2.98-2.95-.81,5.65-9.37,4.61,1.27c2.38.66,3.68,2.05,2.42,4.27-1.04,1.73-2.5,2.48-4.11,2.45l1.21,4.08-3.63-1-.88-3.72ZM131.29,143.02c1.84.51,3.13-1.64,1.29-2.14l-1.71-.47-1.29,2.14,1.71.47Z"/><path class="e" d="M144.1,141.46c2.31.64,3.9,2.19,2.59,4.37l-1.9,3.15c-1.3,2.16-4.03,2.5-6.34,1.85l-4.31-1.19,5.65-9.37,4.31,1.19ZM139.89,148.64c.99.27,1.7-.01,2.06-.62l1.76-2.93c.37-.61.13-1.12-.85-1.39l-1.48-.41-2.98,4.94,1.48.41Z"/></g></g></g></svg>