<?xml version="1.0" encoding="utf-8"?>
<!-- Generator: Adobe Illustrator 17.1.0, SVG Export Plug-In . SVG Version: 6.00 Build 0)  -->
<!DOCTYPE svg PUBLIC "-//W3C//DTD SVG 1.1//EN" "http://www.w3.org/Graphics/SVG/1.1/DTD/svg11.dtd">
<svg version="1.1" id="Layer_1" xmlns="http://www.w3.org/2000/svg" xmlns:xlink="http://www.w3.org/1999/xlink" x="0px" y="0px"
	 viewBox="0 0 16 16" enable-background="new 0 0 16 16" xml:space="preserve">
<g id="setting_-_gear_1_">
	<g>
		<path fill-rule="evenodd" clip-rule="evenodd" fill="#FFFFFF" d="M8,5C6.3,5,5,6.3,5,8c0,1.7,1.3,3,3,3c1.7,0,3-1.3,3-3
			C11,6.3,9.7,5,8,5z M8,10c-1.1,0-2-0.9-2-2c0-1.1,0.9-2,2-2s2,0.9,2,2C10,9.1,9.1,10,8,10z M16,8c0-1-0.8-1.9-1.8-2
			c-0.1-0.3-0.3-0.7-0.4-1c0.7-0.8,0.6-1.9-0.1-2.7c-0.7-0.7-1.9-0.8-2.7-0.1c-0.3-0.2-0.6-0.3-1-0.4C9.9,0.8,9,0,8,0
			C7,0,6.1,0.8,6,1.8C5.7,1.9,5.3,2.1,5,2.2C4.2,1.6,3.1,1.6,2.3,2.3C1.6,3.1,1.6,4.2,2.2,5C2.1,5.3,1.9,5.7,1.8,6C0.8,6.1,0,7,0,8
			c0,1,0.8,1.9,1.8,2c0.1,0.3,0.3,0.7,0.4,1c-0.7,0.8-0.6,1.9,0.1,2.7c0.7,0.7,1.9,0.8,2.7,0.1c0.3,0.2,0.6,0.3,1,0.4
			C6.1,15.2,7,16,8,16c1,0,1.9-0.8,2-1.8c0.3-0.1,0.7-0.3,1-0.4c0.8,0.7,1.9,0.6,2.7-0.1c0.7-0.7,0.8-1.9,0.1-2.7
			c0.2-0.3,0.3-0.6,0.4-1C15.2,9.9,16,9,16,8z M13.4,9c-0.1,0.8-0.5,1.5-0.9,2.1l0.4,0.4c0.4,0.4,0.4,1,0,1.4c-0.4,0.4-1,0.4-1.4,0
			l-0.4-0.4C10.5,13,9.8,13.3,9,13.4V14c0,0.6-0.4,1-1,1c-0.6,0-1-0.4-1-1v-0.6c-0.8-0.1-1.5-0.5-2.1-0.9l-0.4,0.4
			c-0.4,0.4-1,0.4-1.4,0c-0.4-0.4-0.4-1,0-1.4l0.4-0.4C3,10.5,2.7,9.8,2.6,9H2C1.4,9,1,8.6,1,8c0-0.6,0.4-1,1-1h0.6
			C2.7,6.2,3,5.5,3.5,4.9L3.1,4.5c-0.4-0.4-0.4-1,0-1.4c0.4-0.4,1-0.4,1.4,0l0.4,0.4C5.5,3,6.2,2.7,7,2.6V2c0-0.6,0.4-1,1-1
			c0.6,0,1,0.4,1,1v0.6c0.8,0.1,1.5,0.5,2.1,0.9l0.4-0.4c0.4-0.4,1-0.4,1.4,0c0.4,0.4,0.4,1,0,1.4l-0.4,0.4C13,5.5,13.3,6.2,13.4,7
			H14c0.6,0,1,0.4,1,1c0,0.6-0.4,1-1,1H13.4z"/>
	</g>
</g>
</svg>
