<?xml version="1.0" encoding="utf-8"?>
<!-- Generator: Adobe Illustrator 17.1.0, SVG Export Plug-In . SVG Version: 6.00 Build 0)  -->
<!DOCTYPE svg PUBLIC "-//W3C//DTD SVG 1.1//EN" "http://www.w3.org/Graphics/SVG/1.1/DTD/svg11.dtd">
<svg version="1.1" id="Layer_1" xmlns="http://www.w3.org/2000/svg" xmlns:xlink="http://www.w3.org/1999/xlink" x="0px" y="0px"
	 viewBox="0 0 16 16" enable-background="new 0 0 16 16" xml:space="preserve">
<g id="communication_-_mic_silent_mute">
	<g>
		<path fill="#5D6063" d="M5.5,8.2V3.5C5.5,2.1,6.6,1,8,1c1.3,0,2.4,1,2.5,2.3l0.8-0.8C10.9,1,9.6,0,8,0C6.1,0,4.5,1.6,4.5,3.5v5
			c0,0.2,0,0.5,0.1,0.7L5.5,8.2z M10.5,8.5C10.5,9.9,9.4,11,8,11c-0.5,0-1-0.1-1.3-0.4L6,11.3C6.5,11.7,7.2,12,8,12
			c1.9,0,3.5-1.6,3.5-3.5V5.8l-1,1V8.5z M12.5,8v1c0,2.2-1.8,4-4,4h-1c-0.9,0-1.7-0.3-2.4-0.8l-0.7,0.7C5.2,13.6,6.3,14,7.5,14v1H7
			c-0.3,0-0.5,0.2-0.5,0.5S6.7,16,7,16h2c0.3,0,0.5-0.2,0.5-0.5S9.3,15,9,15H8.5v-1c2.8,0,5-2.2,5-5V8H12.5z M3.5,8h-1v1
			c0,0.7,0.1,1.3,0.4,1.9l0.8-0.8C3.6,9.7,3.5,9.4,3.5,9V8z"/>
	</g>
</g>
<polygon fill="#EF4747" points="15.9,0.7 12.2,4.4 4.4,12.2 0.7,15.9 -0.1,15.2 15.2,-0.1 "/>
</svg>
