<svg class="uikit-components-icons-Icon__icon-Go8Us components-ResourceSidebar__menuIcon-eIjtM components-MenuButton__menuButton-2Pjl3" xmlns="http://www.w3.org/2000/svg" viewBox="0 0 24 24" style="width: 12px; height: 12px;"><g fill="none" fill-rule="evenodd"><polygon points="0 0 24 0 24 24 0 24"></polygon><path fill="currentColor" fill-rule="nonzero" d="M11.75,6.5 C13.2625,6.5 14.5,5.2625 14.5,3.75 C14.5,2.2375 13.2625,1 11.75,1 C10.2375,1 9,2.2375 9,3.75 C9,5.2625 10.2375,6.5 11.75,6.5 Z M11.75,9.25 C10.2375,9.25 9,10.4875 9,12 C9,13.5125 10.2375,14.75 11.75,14.75 C13.2625,14.75 14.5,13.5125 14.5,12 C14.5,10.4875 13.2625,9.25 11.75,9.25 Z M11.75,17.5 C10.2375,17.5 9,18.7375 9,20.25 C9,21.7625 10.2375,23 11.75,23 C13.2625,23 14.5,21.7625 14.5,20.25 C14.5,18.7375 13.2625,17.5 11.75,17.5 Z"></path></g></svg>