<?xml version="1.0" standalone="no"?>
<!DOCTYPE svg PUBLIC "-//W3C//DTD SVG 20010904//EN" "http://www.w3.org/TR/2001/REC-SVG-20010904/DTD/svg10.dtd">
<svg xmlns="http://www.w3.org/2000/svg" 
    xmlns:xlink="http://www.w3.org/1999/xlink"
    xmlns:krita="http://krita.org/namespaces/svg/krita"
    xmlns:sodipodi="http://sodipodi.sourceforge.net/DTD/sodipodi-0.dtd"
    width="576pt"
    height="576pt"
    viewBox="0 0 576 576">
<defs/>
<g id="group0" transform="matrix(3.5781064610912 0 0 3.5781064610912 0 0)" fill="none">
  <path id="shape0" 
        transform="translate(0, 0.514000000000003)" 
        fill="currentColor" 
        stroke-opacity="0" 
        stroke="#000000" 
        stroke-width="0" 
        stroke-linecap="square" 
        stroke-linejoin="bevel" 
        d="M160.979 57.709L127.824 50.162L119.707 96.586C111.9 91.239 102.919 86.929 93.152 84.45C106.675 75.352 115.986 57.42 115.986 41.272C115.986 18.483 97.511 0 74.726 0C51.934 0 33.454 18.478 33.454 41.272C33.454 57.42 42.765 75.353 56.288 84.45C23.958 92.652 0 120.716 0 141.511C0 166.099 149.44 166.099 149.44 141.511C149.44 135.19 147.206 128.199 143.216 121.295ZM132.841 57.694L153.216 62.334L137.183 119.737L122.576 116.412ZM74.727 159.943L53.792 139.008L71.414 96.408L71.234 96.408L64.386 88.559C67.705 89.752 71.152 90.458 74.732 90.458C78.303 90.458 81.747 89.752 85.053 88.564L78.208 96.401L78.035 96.401L95.66 139.001ZM137.171 138.728C135.654 145.39 130.04 149.372 123.117 147.795C116.206 146.224 112.728 140.177 114.245 133.51C115.792 126.72 121.638 122.939 128.421 124.473C135.216 126.02 138.59 131.909 137.171 138.728Z" sodipodi:nodetypes="ccccccccccccccccccccccccccccccccc"/>
 </g>
<rect id="shape1" transform="translate(196.56, 354.24)" fill="currentColor" fill-rule="evenodd" width="154.8" height="202.32"/>
<rect id="shape2" transform="translate(181.44, 483.12)" fill="currentColor" fill-rule="evenodd" width="59.04" height="37.4400000000001"/>
<rect id="shape3" transform="translate(210.96, 522)" fill="currentColor" fill-rule="evenodd" width="92.88" height="46.08"/>
<rect id="shape4" transform="translate(223.2, 306)" fill="currentColor" fill-rule="evenodd" width="99.36" height="64.8"/>
<rect id="shape5" transform="translate(255.6, 551.52)" fill="currentColor" fill-rule="evenodd" width="25.92" height="18.72"/>
<rect id="shape6" transform="translate(268.56, 558.72)" fill="currentColor" fill-rule="evenodd" width="2.16000000000003" height="2.15999999999997"/>
<rect id="shape7" transform="translate(263.52, 568.08)" fill="currentColor" fill-rule="evenodd" width="8.64000000000004" height="5.75999999999999"/>
</svg>