<svg xmlns="http://www.w3.org/2000/svg" height="24px" viewBox="0 -960 960 960" width="24px" fill="#e3e3e3">
  <path
     d="m 480,-800 c -44,0 -81.63542,15.69792 -112.96875,47.03125 C 335.69792,-721.63542 320,-684 320,-640 c 0,44 15.69792,81.63542 47.03125,112.96875 C 398.36458,-495.69792 436,-480 480,-480 c 44,0 81.63542,-15.69792 112.96875,-47.03125 C 624.30208,-558.36458 640,-596 640,-640 640,-684 624.30208,-721.63542 592.96875,-752.96875 561.63542,-784.30208 524,-800 480,-800 Z M 685.15625,-631.09375 679.6875,-600 c -10.82822,61.93985 -21.67799,123.90285 -32.5,185.85938 C 634.83609,-418.05026 622.45994,-421.51361 610,-424.53125 567.33333,-434.86458 524,-440 480,-440 c -44,0 -87.33333,5.13542 -130,15.46875 -42.66667,10.33333 -84.6823,25.89583 -126.01562,46.5625 -19.33334,10 -34.81771,24.4375 -46.48438,43.4375 -11.66667,19 -17.5,39.83333 -17.5,62.5 V -160 h 640 v -112.03125 c 0,-22.66667 -5.83333,-43.5 -17.5,-62.5 -4.38303,-7.13808 -9.29935,-13.66728 -14.76562,-19.53125 19.77152,-70.81584 39.51844,-141.6091 59.29687,-212.42188 l 8.4375,-30.3125 -30.70313,-7.03124 c -29.63269,-6.74829 -59.19543,-13.48611 -88.82812,-20.23438 z m 24.0625,36.25 88.90625,20.3125 -55.85938,200 -14.0625,50.39063 -63.75,-14.45313 11.48438,-65.625 z M 673.75,-305 c 1.74379,-0.0725 3.5268,-0.0662 5.3125,0.0781 25.78514,-0.10135 50.26001,21.01778 50.39062,47.5 0.28272,5.43065 -0.22054,10.85207 -1.32812,16.17188 -4.41246,25.422 -29.76751,45.29128 -55.70312,40.54688 -26.0589,-2.13099 -48.18736,-26.08295 -45.78126,-52.57813 0.0647,-25.90403 20.94849,-50.63177 47.10938,-51.71875 z" />
</svg>
