<?xml version="1.0" encoding="UTF-8"?>
<svg id="b" data-name="Layer 2" xmlns="http://www.w3.org/2000/svg" viewBox="0 0 1083.547973632811591 278.458273571732207">
  <defs>
    <style>
      .d {
        fill: #1f6ad3;
      }
    </style>
  </defs>
  <g id="c" data-name="Layer 5">
    <path class="d" d="M253.999984481522006.132068791437632c-10,0-9,30-17.6572265625,68.27716064453125-4.821319580078125,21.316986083984375-12.3427734375,53.72283935546875-16.3427734375,68.72283935546875-1,3-7.034571928135847,31.057619880226412-16,46-3,5-4.961595189593936,5-18,5-4,0-8,0-10.163338420446962,2.764328347198898-1.518865356639253,1.940816342581456-2.809496907010725,4.995436668987168-3.836661579553038,7.235671652801102-1.164415147569343,2.539576777706316-3.520192464192405,3.56797281900981-6,4-1.611785888671875.28082275390625-11.140045166015625-.2850341796875-18-2-16-4-16.483154296875.55621337890625-23,3-8,3-10,13-10,19,0,2,15.614593505859375,5.13189697265625,64,17,26.26318359375,6.44189453125,46.96160888671875,15,60,15,6,0,18.211151123046875-12.1055908203125,24-15,31.622405461448579-15.811173152915217,2.886941150827624-19.760981589512085-.733675899445188-20.899690285870747-.764425215637857-.240416931334039-2.016811679225611-.637851935169238-2.795242276016324-.828093931468175-14.250094285062005-3.482605122926543-15.196259247413764-2.318161170860549-13.471081824538487-7.272215782661078,2.02606201171875-5.818115234375,1.452117919921875-11.4820556640625-3-13-2.9520263671875-1.0064697265625-3.965576171875-.6505126953125-13-3-2.830230712890625-.73602294921875-4-1-5-2-2.121320343560001-2.121320343560001,1-15,3-25,.784464540553017-3.922322702763267,2-15,4-20,1.660909597074351-4.152273992687697,4.012287693880353-5.379213811918817,6-13,3.511191600337042-13.461727016112491,6.640573926916659-35.154730357329754,12-54,9.89556884765625-34.795623779296875,15-69,14-77-.51141357421875-4.091278076171875-7.787553765987468-3-10-3Z"/>
    <path class="d" d="M237.999984481522006,145.132068791437632c-1.614126488595502,2.380836570679094-3.455244549950294,6.175636603213206-4,9-.81942467832414,4.248425725101697-4,16-4,23-.000000000001819,10.401272285822415,4,9,7,4,1.616404221093035-2.694007035153845,6.025735350034665-10.283088850377681,7-21,2-22-3.037037037036498-19.370370370370438-6-15Z"/>
    <g>
      <path class="d" d="M492.809204101561591,214.958273571732207h-48l-11.5-35.5h-47.25l-11,35.5h-48l61.75-177h40.75l63.25,177ZM422.559204101561591,139.708273571732207l-12.25-51.75h-1.25l-13,51.75h26.5Z"/>
      <path class="d" d="M570.807739257811591,37.958273571732207c35.5,0,68.75,18,68.75,59.25v59.5c0,40.75-33.25,58.5-68.75,58.25h-66.25V37.958273571732207h66.25ZM572.307739257811591,172.958273571732207c15.25,0,22.25-7.75,22.25-19.25v-55.25c0-11.5-7.25-18.75-22.25-18.75h-22.75v93.25h22.75Z"/>
      <path class="d" d="M663.553833007811591,37.958273571732207h44.75l37.25,86.5,37.5-86.5h44.75v177h-45l.25-51,2.75-35.75-1.5-.25-23.25,60.75h-30.75l-23.75-60.75-1.25.25,3,35.75v51h-44.75V37.958273571732207Z"/>
      <path class="d" d="M900.552856445311591,214.958273571732207h-44.75V37.958273571732207h44.75v177Z"/>
      <path class="d" d="M928.549926757811591,37.958273571732207h42.5l42.75,75.5,15,35.5,1.25-.25c-.25,0-4.75-30.5-5-30.5V37.958273571732207h44.5v177h-45.25l-40-69.75-15.5-35.5-1.25.25,5.75,34.25v70.75h-44.75V37.958273571732207Z"/>
    </g>
    <path class="d" d="M218.999999999999091,57.132040661575957s7.0369873046875-33-46.999999999999091-33c-26,0-54,24-62,37l-10,23v15.639404296875s-6,7.360595703125-6,15.360595703125,8,11,8,11l1,18-53.138549804688409,14.5S0,177.132040661575957,0,198.132040661575957c0,22,37,23,47,23s43-4,55-13c10.645080566405341-7.98382568359375,41-29,46-37,.74951171875-1.19921875,1.643371582030341-3.216796875,2-5,1-5-4-15-13-15-10.526794433594659,0-20.878051757813409,8.8780517578125-25,13-1,1-4.748352050782159,3.2967529296875-7,5l-15,8s-34,13-50,13c-5,0,36-16,36-16,0,0,20-10,30-10,6-2,17.018615722655341-17.2484130859375,32-16,12,1,17,15,15,20-3.321838378907159,8.3045654296875-8,10-8,10,9,0,12-7,12-7,0,0-1.575134277344659-.7869873046875-2-2l3-5c5,3,11,8,11,8,0,2-3,5-3,5-.844543457032159-.0438232421875-3-2-3-2,0,0-3,3-8,5,0,0-6,2-11,2s-6.589538574219659,2.76849365234375-7,4c-1,3,.351013183592841,2.9771728515625,1,3,5.510803222655341.19378662109375,28,2,33,0,2.936096191405341-1.1744384765625,5-6,8-6h11.135681152342841c2.2032470703125,0,4.39691162109375-.42474365234375,6.403625488282159-1.33428955078125,1.90966796875-.865478515625,3.460693359375-1.66571044921875,4.460693359375-3.66571044921875,6.444152832030341-12.88836669921875,18.999999999999091-56,24.999999999999091-88,4.43060302734375-23.62982177734375-7-33-7-33ZM121,150.132040661575957c-4,0-8-5.113037109375-8-11,0-2-.123107910157159-8,4-8,4,0,9,5.928955078125,9,13,0,3-2.305541992188409,6-5,6ZM175,155.132040661575957c-5,0-11-5.783203125-11-12,0-3,1-8,6-8,4.872375488280341,0,10,5.783203125,10,12,0,3-1.641540527344659,8-5,8Z"/>
  </g>
</svg>